<svg width="355" height="355" viewBox="0 0 355 355" fill="none" xmlns="http://www.w3.org/2000/svg">
<path d="M299.776 0H181.442C151.069 0 126.221 24.8508 126.221 55.221V126.221H55.221C24.848 126.221 0 151.072 0 181.442V299.776C0 330.149 24.8508 354.997 55.221 354.997H173.555C203.928 354.997 228.776 330.146 228.776 299.776L228.779 228.776H299.779C330.152 228.776 355 203.925 355 173.555V55.221C355 24.8508 330.149 0 299.779 0H299.776ZM212.998 299.779C212.998 321.474 195.249 339.224 173.553 339.224H55.2196C33.5244 339.224 15.775 321.474 15.775 299.779V181.445C15.775 159.75 33.5244 142.001 55.2196 142.001H126.22V173.557C126.22 203.93 151.071 228.778 181.441 228.778H212.997L212.998 299.779ZM212.998 213.001H181.442C159.746 213.001 141.997 195.252 141.997 173.556V142H173.553C195.249 142 212.998 159.749 212.998 181.445V213.001ZM339.221 173.556C339.221 195.252 321.471 213.001 299.776 213.001H228.776V181.445C228.776 151.071 203.925 126.223 173.555 126.223H141.998V55.2232C141.998 33.5279 159.748 15.7785 181.443 15.7785H299.777C321.472 15.7785 339.222 33.5279 339.222 55.2232L339.221 173.556Z" fill="#D4D4D4"/>
<path d="M351.5 178V174.5H344.5V178H351.5ZM344.5 222C344.5 223.933 346.067 225.5 348 225.5C349.933 225.5 351.5 223.933 351.5 222H344.5ZM344.5 180.2V183.7H351.5V180.2H344.5ZM351.5 189V185.5H344.5V189H351.5ZM344.5 202.2V205.7H351.5V202.2H344.5ZM351.5 219.8V216.3H344.5V219.8H351.5ZM344.5 178V180.2H351.5V178H344.5ZM344.5 189V202.2H351.5V189H344.5ZM344.5 219.8V222H351.5V219.8H344.5ZM355 178V171H341V178H355ZM341 222C341 225.866 344.134 229 348 229C351.866 229 355 225.866 355 222H341ZM341 180.2V187.2H355V180.2H341ZM355 189V182H341V189H355ZM341 202.2V209.2H355V202.2H341ZM355 219.8V212.8H341V219.8H355ZM341 178V180.2H355V178H341ZM341 189V202.2H355V189H341ZM341 219.8V222H355V219.8H341Z" fill="#D4D4D4"/>
</svg>
